<?xml version="1.0" standalone="no"?>
<!DOCTYPE svg PUBLIC "-//W3C//DTD SVG 20010904//EN"
 "http://www.w3.org/TR/2001/REC-SVG-20010904/DTD/svg10.dtd">
<svg version="1.0" xmlns="http://www.w3.org/2000/svg"
 width="200.000000pt" height="200.000000pt" viewBox="0 0 200.000000 200.000000"
 preserveAspectRatio="xMidYMid meet">
<metadata>
Created by potrace 1.11, written by Peter Selinger 2001-2013
</metadata>
<g transform="translate(0.000000,200.000000) scale(0.100000,-0.100000)"
fill="#000000" stroke="none">
<path d="M721 1669 c-193 -62 -327 -237 -333 -434 -2 -61 -4 -66 -27 -71 -50
-12 -148 -74 -193 -122 -166 -177 -161 -443 9 -616 63 -64 152 -111 233 -123
30 -5 305 -8 610 -8 514 1 559 2 615 20 123 38 223 126 278 242 59 127 47 294
-30 416 -40 64 -115 130 -182 162 l-61 29 4 51 c4 72 -24 154 -70 200 -76 76
-163 103 -260 80 -56 -13 -59 -13 -73 8 -27 40 -100 103 -148 129 -110 60
-257 74 -372 37z"/>
</g>
</svg>
